<?xml version="1.0" encoding="UTF-8"?>
<svg version="1.1" xmlns="http://www.w3.org/2000/svg" width="220" height="97">
<path d="M0 0 C6.79282804 -0.14767017 10.02027717 3.18877134 14.86328125 7.67578125 C17 10 17 10 17.94140625 12.18359375 C18.91027522 14.27300344 18.91027522 14.27300344 21.6015625 15.046875 C23.09816406 15.39492188 23.09816406 15.39492188 24.625 15.75 C25.62789063 15.99234375 26.63078125 16.2346875 27.6640625 16.484375 C28.43492188 16.65453125 29.20578125 16.8246875 30 17 C29.6390625 16.32453125 29.278125 15.6490625 28.90625 14.953125 C28.21015625 13.61507813 28.21015625 13.61507813 27.5 12.25 C26.80390625 10.92742188 26.80390625 10.92742188 26.09375 9.578125 C25 7 25 7 25 3 C29.78738202 3.42241606 32.79247839 5.58090045 36 9 C38.88862292 12.80810008 40.9314025 16.55339244 42.3125 21.125 C43.7632899 25.45191726 46.47336375 27.22150856 50.2578125 29.578125 C52.34124204 31.27850247 52.6310588 32.3838715 53 35 C51.22891052 33.87540329 49.45813764 32.75030797 47.6875 31.625 C46.70136719 30.99851562 45.71523437 30.37203125 44.69921875 29.7265625 C42.78712071 28.50348387 40.8885966 27.2590644 39 26 C35.0154074 26.34648631 31.64737336 27.39086469 28 29 C28.88945312 30.08667969 28.88945312 30.08667969 29.796875 31.1953125 C33.11971556 36.19129411 33.98513802 42.09922718 35.25 47.875 C35.518125 49.02097656 35.78625 50.16695312 36.0625 51.34765625 C37.41928793 57.36321091 38.33328312 62.83426232 38 69 C35.625 69.625 35.625 69.625 33 70 C31 68 31 68 30.8046875 66.0546875 C30.86979167 64.03645833 30.93489583 62.01822917 31 60 C28.36 60 25.72 60 23 60 C22.01 63.96 21.02 67.92 20 72 C18.68 72 17.36 72 16 72 C15.45783839 58.02427851 16.46059859 44.62780963 23 32 C21.96593327 30.74050951 21.96593327 30.74050951 19.71484375 30.90234375 C18.79832031 30.91394531 17.88179687 30.92554687 16.9375 30.9375 C16.01839844 30.94652344 15.09929687 30.95554687 14.15234375 30.96484375 C13.44207031 30.97644531 12.73179688 30.98804687 12 31 C12.125 28.75 12.125 28.75 13 26 C17.08165781 22.59861849 20.94220281 21.21387132 26 20 C22.37 19.34 18.74 18.68 15 18 C14.34 19.32 13.68 20.64 13 22 C8.08906647 26.81671898 2.57331917 29.26537411 -4 31 C-5.07421875 29.16015625 -5.07421875 29.16015625 -6 27 C-4.50692877 23.77810946 -2.6244603 21.3745117 0 19 C-2.36539052 19.12056596 -2.36539052 19.12056596 -5 20 C-6.36176922 21.64351457 -7.68962066 23.31522656 -9 25 C-13.31311246 28.70092875 -17.8050154 31.66225693 -23 34 C-22.34 34.99 -21.68 35.98 -21 37 C-20.9453125 39.7421875 -20.9453125 39.7421875 -21.125 42.875 C-21.25726087 47.75435904 -21.25726087 47.75435904 -19.0625 52.0625 C-18.0415625 53.0215625 -18.0415625 53.0215625 -17 54 C-15.71682108 57.84953676 -15.93356363 60.94738135 -16 65 C-18.1875 65 -18.1875 65 -21 64 C-22.39712376 62.04402674 -23.50519326 60.05228041 -24.59375 57.91015625 C-26.16505691 55.42403861 -26.16505691 55.42403861 -31 54 C-31 60.27 -31 66.54 -31 73 C-35 74 -35 74 -37 73 C-39.46673974 65.58184086 -39.50908618 57.42235369 -39.8125 49.6875 C-39.87630859 48.53443359 -39.94011719 47.38136719 -40.00585938 46.19335938 C-40.05162109 45.08154297 -40.09738281 43.96972656 -40.14453125 42.82421875 C-40.18940674 41.82479248 -40.23428223 40.82536621 -40.28051758 39.7956543 C-39.94776327 36.47940573 -38.96107635 34.66800007 -37 32 C-34.59454362 30.79727181 -33.05003047 30.89928528 -30.375 30.9375 C-29.14910156 30.95103516 -29.14910156 30.95103516 -27.8984375 30.96484375 C-27.27195312 30.97644531 -26.64546875 30.98804687 -26 31 C-25.835 30.319375 -25.67 29.63875 -25.5 28.9375 C-22.79022843 23.63086401 -18.30382279 19.85153259 -12.734375 17.79296875 C-11.38085938 17.40044922 -11.38085938 17.40044922 -10 17 C-10.90363281 16.80664062 -11.80726562 16.61328125 -12.73828125 16.4140625 C-13.91777344 16.15367188 -15.09726563 15.89328125 -16.3125 15.625 C-17.48425781 15.36976562 -18.65601563 15.11453125 -19.86328125 14.8515625 C-23 14 -23 14 -26 12 C-25.67 11.01 -25.34 10.02 -25 9 C-16.88725092 6.735977 -9.48226231 10.33803757 -1.87109375 13.16015625 C0.93205193 13.98012403 2.53943213 14.11389101 5.375 13.625 C6.57125 13.41875 7.7675 13.2125 9 13 C8.51789063 12.60167969 8.03578125 12.20335937 7.5390625 11.79296875 C6.90742187 11.26316406 6.27578125 10.73335937 5.625 10.1875 C4.99851563 9.66542969 4.37203125 9.14335937 3.7265625 8.60546875 C2 7 2 7 0 4 C0 2.68 0 1.36 0 0 Z M-33 36 C-33 38.64 -33 41.28 -33 44 C-32.01 44.33 -31.02 44.66 -30 45 C-27.32323453 43.62750037 -27.32323453 43.62750037 -25 42 C-25.18828772 39.55519921 -25.18828772 39.55519921 -26 37 C-28.87267156 34.89337419 -29.53279509 34.84426503 -33 36 Z M27 40 C25.57741188 43.82320557 24.75957724 46.91281305 25 51 C27.475 51.495 27.475 51.495 30 52 C29.88541307 50.56163249 29.75790884 49.12429034 29.625 47.6875 C29.55539063 46.88699219 29.48578125 46.08648437 29.4140625 45.26171875 C29.10435574 42.72775559 29.10435574 42.72775559 27 40 Z " fill="#9AC863" transform="translate(93,0)"/>
<path d="M0 0 C3.72190588 0.82123025 5.9434794 2.97772217 8.0390625 6.0546875 C9.34366932 9.52791706 9.31264672 12.95084709 9.3046875 16.61328125 C9.30307617 17.37342529 9.30146484 18.13356934 9.29980469 18.91674805 C9.14119157 26.18573846 7.29481577 31.08197921 3.1171875 36.98828125 C-0.0909675 39.09649739 -2.31066204 38.88749271 -6.0703125 38.42578125 C-10.26073674 36.61627987 -12.04694371 34.47251882 -14.0703125 30.42578125 C-16.61003877 22.80660244 -15.58795897 14.75969575 -12.26171875 7.5625 C-9.16830051 2.01463187 -6.34043702 -0.41870811 0 0 Z M-0.0703125 7.42578125 C-3.49577693 14.91535603 -3.10366367 21.37062216 -2.0703125 29.42578125 C-1.4103125 29.42578125 -0.7503125 29.42578125 -0.0703125 29.42578125 C3.02549815 23.57967453 5.32215071 18.12031592 3.9296875 11.42578125 C2.11704102 8.85587127 2.11704102 8.85587127 -0.0703125 7.42578125 Z " fill="#FEFEFD" transform="translate(39.0703125,37.57421875)"/>
<path d="M0 0 C3.24784508 1.05907992 3.99599233 1.9928487 5.703125 5.0390625 C6.21359375 6.22242188 6.7240625 7.40578125 7.25 8.625 C7.77078125 9.81351563 8.2915625 11.00203125 8.828125 12.2265625 C9.21484375 13.14179687 9.6015625 14.05703125 10 15 C10.13277344 14.15695313 10.26554688 13.31390625 10.40234375 12.4453125 C10.57894531 11.34960938 10.75554687 10.25390625 10.9375 9.125 C11.19853516 7.48917969 11.19853516 7.48917969 11.46484375 5.8203125 C12 3 12 3 13 1 C15.475 1.495 15.475 1.495 18 2 C19.78562425 7.82621138 19.18449453 14.09602491 19.1875 20.125 C19.19974609 21.42566406 19.21199219 22.72632813 19.22460938 24.06640625 C19.22750977 25.92458984 19.22750977 25.92458984 19.23046875 27.8203125 C19.23457764 28.95742676 19.23868652 30.09454102 19.24291992 31.26611328 C19 34 19 34 17 36 C15.10546875 36.0546875 15.10546875 36.0546875 13 35 C11.57934094 32.69988533 10.4297341 30.56392934 9.3125 28.125 C9.00505859 27.48691406 8.69761719 26.84882812 8.38085938 26.19140625 C7.09347274 23.49268329 5.94619857 20.83859572 5 18 C5.04640625 19.10859375 5.0928125 20.2171875 5.140625 21.359375 C5.17815102 22.82288968 5.21455029 24.28643356 5.25 25.75 C5.30027344 26.84441406 5.30027344 26.84441406 5.3515625 27.9609375 C5.41728395 31.5756173 5.31918639 33.57485963 3.1171875 36.5078125 C1 38 1 38 -1.125 38.125 C-3 37 -3 37 -4.25 34.6875 C-5.32422917 29.40587323 -5.18897132 24.37044303 -5 19 C-4.97035156 17.68902344 -4.94070312 16.37804687 -4.91015625 15.02734375 C-4.85923497 13.68480011 -4.8058833 12.34234626 -4.75 11 C-4.70359375 9.7625 -4.6571875 8.525 -4.609375 7.25 C-3.91408053 3.54176282 -2.90070799 2.32056639 0 0 Z " fill="#FDFEFC" transform="translate(142,37)"/>
<path d="M0 0 C2.50160818 1.87620613 3.61945652 3.23891303 5 6 C4.96850698 7.93825197 4.90084804 9.87600649 4.8125 11.8125 C4.73042104 16.72571581 4.73042104 16.72571581 6.9375 21.0625 C7.618125 21.701875 8.29875 22.34125 9 23 C10.28317892 26.84953676 10.06643637 29.94738135 10 34 C7.8125 34 7.8125 34 5 33 C3.60287624 31.04402674 2.49480674 29.05228041 1.40625 26.91015625 C-0.16505691 24.42403861 -0.16505691 24.42403861 -5 23 C-5 29.27 -5 35.54 -5 42 C-9 43 -9 43 -11 42 C-13.46673974 34.58184086 -13.50908618 26.42235369 -13.8125 18.6875 C-13.87630859 17.53443359 -13.94011719 16.38136719 -14.00585938 15.19335938 C-14.05162109 14.08154297 -14.09738281 12.96972656 -14.14453125 11.82421875 C-14.18940674 10.82479248 -14.23428223 9.82536621 -14.28051758 8.7956543 C-13.94776327 5.47940573 -12.96107635 3.66800007 -11 1 C-7.55258453 -0.72370774 -3.76964661 -0.50306672 0 0 Z M-7 5 C-7 7.64 -7 10.28 -7 13 C-6.01 13.33 -5.02 13.66 -4 14 C-1.32323453 12.62750037 -1.32323453 12.62750037 1 11 C0.81171228 8.55519921 0.81171228 8.55519921 0 6 C-2.87267156 3.89337419 -3.53279509 3.84426503 -7 5 Z " fill="#FDFEFD" transform="translate(67,31)"/>
<path d="M0 0 C2.3125 0.5625 2.3125 0.5625 5 2 C8.04980877 7.84546681 9.32212873 14.02314253 10.6875 20.4375 C10.91244141 21.43587891 11.13738281 22.43425781 11.36914062 23.46289062 C12.58939409 29.1042448 13.25444976 34.23017983 13 40 C10.625 40.625 10.625 40.625 8 41 C6 39 6 39 5.8046875 37.0546875 C5.86979167 35.03645833 5.93489583 33.01822917 6 31 C3.36 31 0.72 31 -2 31 C-2.99 34.96 -3.98 38.92 -5 43 C-6.32 43 -7.64 43 -9 43 C-9.582142 27.99367292 -8.56259922 12.84389883 0 0 Z M2 11 C0.57741188 14.82320557 -0.24042276 17.91281305 0 22 C2.475 22.495 2.475 22.495 5 23 C4.88541307 21.56163249 4.75790884 20.12429034 4.625 18.6875 C4.55539063 17.88699219 4.48578125 17.08648437 4.4140625 16.26171875 C4.10435574 13.72775559 4.10435574 13.72775559 2 11 Z " fill="#FDFEFC" transform="translate(118,29)"/>
<path d="M0 0 C1.875 1.5625 1.875 1.5625 3 3 C2.67 3.99 2.34 4.98 2 6 C-0.31 6 -2.62 6 -5 6 C-7.59379723 11.99815609 -8.20528787 18.95915051 -6.32421875 25.265625 C-5.45462297 27.36822128 -5.45462297 27.36822128 -4 30 C-3.34 30 -2.68 30 -2 30 C-1.67 28.68 -1.34 27.36 -1 26 C-2.32 25.34 -3.64 24.68 -5 24 C-5.042721 22.33388095 -5.04063832 20.66617115 -5 19 C-4 18 -4 18 -0.5625 17.8125 C3 18 3 18 5 20 C6.23814946 25.98438905 6.0546409 30.22743746 4 36 C1.64786947 38.78771026 0.25073199 38.96285452 -3.375 39.5 C-6.95794707 39.0058004 -9.05576614 38.31148481 -11.7109375 35.8125 C-15.85894522 29.98014975 -16.67186174 21.94257136 -16 15 C-14.63258015 8.80951012 -12.42021182 4.53355059 -8 0 C-5.06317146 -1.46841427 -3.13175678 -0.76696084 0 0 Z " fill="#FEFEFD" transform="translate(98,36)"/>
<path d="M0 0 C0.33 1.32 0.66 2.64 1 4 C-0.175625 4.309375 -0.175625 4.309375 -1.375 4.625 C-4.22317378 5.76913743 -4.22317378 5.76913743 -5.15234375 8.6171875 C-6.09326229 12.37218962 -6.23073782 15.63218004 -6.1875 19.5 C-6.18105469 20.7684375 -6.17460937 22.036875 -6.16796875 23.34375 C-6.01606235 26.6503637 -5.62618134 29.75387592 -5 33 C-4.13375 32.4740625 -4.13375 32.4740625 -3.25 31.9375 C-0.64198224 30.85082593 0.39417629 31.06934867 3 32 C2.6875 34.375 2.6875 34.375 2 37 C-1 39 -1 39 -4.375 39 C-9.01346535 37.72042335 -10.34524248 35.94421118 -13 32 C-17.01525824 24.37100935 -16.3974904 16.03042902 -14 8 C-10.36735714 0.47008467 -8.50155939 -1.41692657 0 0 Z " fill="#FEFEFD" transform="translate(202,32)"/>
<path d="M0 0 C3.3 0 6.6 0 10 0 C9.81824219 1.42570312 9.63648438 2.85140625 9.44921875 4.3203125 C8.88922543 9.94403305 9.22217082 15.26888072 9.8125 20.875 C9.89564453 21.79796875 9.97878906 22.7209375 10.06445312 23.671875 C10.48751952 27.93341971 10.88147272 31.21849627 13 35 C9.30567329 38.54039643 5.9267562 38.67693402 1 39 C0 38 0 38 -0.125 35.5 C0 33 0 33 1 32 C1.08748207 30.07332493 1.10697334 28.14348139 1.09765625 26.21484375 C1.09443359 25.04501953 1.09121094 23.87519531 1.08789062 22.66992188 C1.07951172 21.43822266 1.07113281 20.20652344 1.0625 18.9375 C1.05798828 17.70193359 1.05347656 16.46636719 1.04882812 15.19335938 C1.03699608 12.12885883 1.02051173 9.06445279 1 6 C0.34 5.67 -0.32 5.34 -1 5 C-0.67 3.35 -0.34 1.7 0 0 Z " fill="#FEFEFE" transform="translate(168,33)"/>
<path d="M0 0 C0 0.66 0 1.32 0 2 C-25.74 2 -51.48 2 -78 2 C-78 1.34 -78 0.68 -78 0 C-68.27311355 -0.15377003 -58.54615966 -0.3019515 -48.8190794 -0.4429636 C-44.30259725 -0.50861479 -39.7861613 -0.57620364 -35.26977539 -0.64819336 C-30.91266958 -0.71757336 -26.55551599 -0.78189931 -22.19828224 -0.84269524 C-20.53445531 -0.86680381 -18.87065392 -0.89274524 -17.20688438 -0.92053413 C-14.87974413 -0.95909231 -12.55259904 -0.99118128 -10.2253418 -1.02172852 C-9.53482224 -1.03467453 -8.84430267 -1.04762054 -8.13285828 -1.06095886 C-5.11654263 -1.0943874 -2.89064665 -0.96354888 0 0 Z " fill="#76AC56" transform="translate(78,95)"/>
<path d="M0 0 C23.76 0.33 47.52 0.66 72 1 C72 1.66 72 2.32 72 3 C47.91 3 23.82 3 -1 3 C-0.67 2.01 -0.34 1.02 0 0 Z " fill="#75AC56" transform="translate(148,94)"/>
<path d="M0 0 C3.5625 0.1875 3.5625 0.1875 5.5625 2.1875 C5.23278521 5.48464793 4.9398161 6.8101839 2.5625 9.1875 C3.305 10.115625 3.305 10.115625 4.0625 11.0625 C5.5625 13.1875 5.5625 13.1875 5.5625 15.1875 C2.69525314 14.61405063 1.7010485 14.3260485 -0.4375 12.1875 C-0.7675 13.1775 -1.0975 14.1675 -1.4375 15.1875 C-2.4275 15.1875 -3.4175 15.1875 -4.4375 15.1875 C-4.46435412 12.87506208 -4.48382841 10.5625373 -4.5 8.25 C-4.51160156 6.96222656 -4.52320312 5.67445312 -4.53515625 4.34765625 C-4.4082339 0.24044912 -4.4082339 0.24044912 0 0 Z M-0.4375 3.1875 C-0.4375 3.8475 -0.4375 4.5075 -0.4375 5.1875 C0.5525 4.8575 1.5425 4.5275 2.5625 4.1875 C1.5725 3.8575 0.5825 3.5275 -0.4375 3.1875 Z " fill="#FDFEFC" transform="translate(125.4375,81.8125)"/>
<path d="M0 0 C2.5 -0.375 2.5 -0.375 5 0 C7.09740836 3.14611253 7.25328219 3.91188078 7.1875 7.5 C7.17783203 8.66015625 7.17783203 8.66015625 7.16796875 9.84375 C7 12 7 12 6 15 C2.625 15.1875 2.625 15.1875 -1 15 C-3.18719033 11.71921451 -3.21791927 11.19409949 -2.75 7.5 C-2.66234375 6.7265625 -2.5746875 5.953125 -2.484375 5.15625 C-2 3 -2 3 0 0 Z M2 3 C1.67 5.97 1.34 8.94 1 12 C1.99 11.67 2.98 11.34 4 11 C3.67 8.36 3.34 5.72 3 3 C2.67 3 2.34 3 2 3 Z " fill="#FDFEFC" transform="translate(110,82)"/>
<path d="M0 0 C0.78375 0.04125 1.5675 0.0825 2.375 0.125 C3.4375 2 3.4375 2 4.375 4.125 C4.045 4.785 3.715 5.445 3.375 6.125 C2.385 6.125 1.395 6.125 0.375 6.125 C1.695 7.115 3.015 8.105 4.375 9.125 C3.5 14 3.5 14 2.375 15.125 C0.03555264 14.83769945 -2.2989143 14.50563221 -4.625 14.125 C-4.625 12.805 -4.625 11.485 -4.625 10.125 C-2.15 11.115 -2.15 11.115 0.375 12.125 C0.375 11.465 0.375 10.805 0.375 10.125 C-0.264375 9.815625 -0.90375 9.50625 -1.5625 9.1875 C-3.625 8.125 -3.625 8.125 -4.625 7.125 C-4.8125 4.6875 -4.8125 4.6875 -4.625 2.125 C-2.625 0.125 -2.625 0.125 0 0 Z " fill="#FCFDFB" transform="translate(86.625,81.875)"/>
<path d="M0 0 C1.98 0 3.96 0 6 0 C6 1.32 6 2.64 6 4 C5.01 4.33 4.02 4.66 3 5 C3.66 5.33 4.32 5.66 5 6 C5 6.99 5 7.98 5 9 C3.68 9.33 2.36 9.66 1 10 C1.33 10.66 1.66 11.32 2 12 C3.32 11.67 4.64 11.34 6 11 C6.33 11.66 6.66 12.32 7 13 C5.8125 14.5625 5.8125 14.5625 4 16 C1.3125 15.6875 1.3125 15.6875 -1 15 C-3.03164375 10.82978388 -3.07903196 8.40594062 -1.625 4.125 C-1.10060086 2.74332228 -0.56452075 1.36577601 0 0 Z " fill="#FBFDF8" transform="translate(136,81)"/>
<path d="M0 0 C0.33 0.99 0.66 1.98 1 3 C-0.65 3.33 -2.3 3.66 -4 4 C-4 7.63 -4 11.26 -4 15 C-4.99 15 -5.98 15 -7 15 C-7.33 11.7 -7.66 8.4 -8 5 C-9.32 4.67 -10.64 4.34 -12 4 C-12 3.34 -12 2.68 -12 2 C-7.82262526 0.40861915 -4.46839215 -0.21278058 0 0 Z " fill="#FBFDF9" transform="translate(105,81)"/>
<path d="M0 0 C3.99452176 1.36955032 6.92159754 3.0926199 10 6 C10.640625 8.1328125 10.640625 8.1328125 11 10 C9.15878785 8.90902202 7.32718744 7.80180749 5.5 6.6875 C4.4790625 6.07261719 3.458125 5.45773438 2.40625 4.82421875 C1.21515625 3.92123047 1.21515625 3.92123047 0 3 C0 2.01 0 1.02 0 0 Z " fill="#B2D488" transform="translate(135,25)"/>
<path d="M0 0 C0.66 0.33 1.32 0.66 2 1 C2 1.33 2 1.66 2 2 C3.32 2.33 4.64 2.66 6 3 C0.375 6 0.375 6 -3 6 C-3.66 6.66 -4.32 7.32 -5 8 C-4.64950425 4.75791433 -4.43778819 3.38472296 -1.9375 1.1875 C-1.298125 0.795625 -0.65875 0.40375 0 0 Z " fill="#A9CF7A" transform="translate(110,23)"/>
<path d="M0 0 C3.465 1.98 3.465 1.98 7 4 C6.34 4.66 5.68 5.32 5 6 C3.02 5.01 1.04 4.02 -1 3 C-0.67 2.01 -0.34 1.02 0 0 Z " fill="#B6D68E" transform="translate(68,9)"/>
<path d="M0 0 C-0.33 0.99 -0.66 1.98 -1 3 C-6.75 1.25 -6.75 1.25 -9 -1 C-5.79937313 -2.60031344 -3.27728194 -1.03173691 0 0 Z " fill="#B1D387" transform="translate(121,17)"/>
</svg>
